<svg version="1.1" xmlns="http://www.w3.org/2000/svg" viewBox="0 0 411.7391427976396 401.876953125" width="411.7391427976396" height="401.876953125">
  <!-- svg-source:excalidraw -->
  
  <defs>
    <style class="style-fonts">
      @font-face {
        font-family: "Virgil";
        src: url("http://127.0.0.1:37840/node_modules/@excalidraw/excalidraw/dist//dist/excalidraw-assets/Virgil.woff2");
      }
      @font-face {
        font-family: "Cascadia";
        src: url("http://127.0.0.1:37840/node_modules/@excalidraw/excalidraw/dist//dist/excalidraw-assets/Cascadia.woff2");
      }
    </style>
    
  </defs>
  <rect x="0" y="0" width="411.7391427976396" height="401.876953125" fill="#ffffff"></rect><g stroke-linecap="round" transform="translate(5 5) rotate(0 124.06155395507812 64.984619140625)"><path d="M32 0 M32 0 C85.79 0.27, 144.94 -1.48, 216.12 0 M32 0 C97.48 0.79, 161.83 0.53, 216.12 0 M216.12 0 C237.85 -0.85, 248.38 10.25, 248.12 32 M216.12 0 C238.91 1.52, 246.69 11.04, 248.12 32 M248.12 32 C248.56 50.67, 248.41 71.01, 248.12 97.97 M248.12 32 C247.57 53.98, 248.11 76.69, 248.12 97.97 M248.12 97.97 C246.46 120.86, 237.18 131.67, 216.12 129.97 M248.12 97.97 C249.06 119.8, 235.35 131.34, 216.12 129.97 M216.12 129.97 C178.18 131.59, 141.39 131.04, 32 129.97 M216.12 129.97 C170.66 128.08, 123.06 129.01, 32 129.97 M32 129.97 C11.56 128.2, -1.75 121.14, 0 97.97 M32 129.97 C11.19 130.31, -0.98 120.07, 0 97.97 M0 97.97 C-2.14 75.72, -0.88 48.6, 0 32 M0 97.97 C-0.49 73.47, -1.02 50.43, 0 32 M0 32 C1.64 10.42, 11.44 -1.6, 32 0 M0 32 C1.26 11.28, 9.74 1.1, 32 0" stroke="#1e1e1e" stroke-width="1" fill="none"></path></g><g transform="translate(104.4715805053711 57.484619140625) rotate(0 24.58997344970703 12.5)"><text x="24.58997344970703" y="0" font-family="Virgil, Segoe UI Emoji" font-size="20px" fill="#1e1e1e" text-anchor="middle" style="white-space: pre;" direction="ltr" dominant-baseline="text-before-edge">Test</text></g><g stroke-linecap="round" transform="translate(156.63079833984375 253.12310791015625) rotate(0 103.38461303710938 71.87692260742188)"><path d="M32 0 M32 0 C86.93 1.32, 140.71 -1.72, 174.77 0 M32 0 C65.32 -0.85, 99.66 -0.2, 174.77 0 M174.77 0 C195.66 -0.61, 206.34 10.57, 206.77 32 M174.77 0 C196.85 1.76, 206.68 10.08, 206.77 32 M206.77 32 C205.98 61.86, 204.92 91.62, 206.77 111.75 M206.77 32 C208.39 60.51, 207.53 89.75, 206.77 111.75 M206.77 111.75 C204.88 132.64, 195.43 145.18, 174.77 143.75 M206.77 111.75 C209.01 134.92, 196.01 145.1, 174.77 143.75 M174.77 143.75 C132.78 144.65, 92.07 144.7, 32 143.75 M174.77 143.75 C143.67 141.57, 110.24 143.11, 32 143.75 M32 143.75 C11.53 143.52, 0.49 133.63, 0 111.75 M32 143.75 C11.01 145.98, 1.08 131.99, 0 111.75 M0 111.75 C-1.23 83.69, 1.58 54.72, 0 32 M0 111.75 C0.62 93.2, -0.45 76.46, 0 32 M0 32 C0.79 10.04, 8.69 -0.19, 32 0 M0 32 C1.47 12.6, 10.43 -2.07, 32 0" stroke="#1e1e1e" stroke-width="1" fill="none"></path></g><g transform="translate(223.55545043945312 312.5000305175781) rotate(0 36.4599609375 12.5)"><text x="36.4599609375" y="0" font-family="Virgil, Segoe UI Emoji" font-size="20px" fill="#1e1e1e" text-anchor="middle" style="white-space: pre;" direction="ltr" dominant-baseline="text-before-edge">Testing</text></g><g stroke-linecap="round"><g transform="translate(259.03076171875 76.03919963137838) rotate(0 72.86154174804688 86.57271585813898)"><path d="M1.14 0.72 C25.36 9.48, 135.57 24.31, 144.79 53.2 C154 82.08, 71.35 154.11, 56.43 174.03 M0.28 0.05 C24.92 8.97, 137.77 26.14, 147.01 54.83 C156.25 83.51, 71.08 152.35, 55.74 172.15" stroke="#1e1e1e" stroke-width="1" fill="none"></path></g><g transform="translate(259.03076171875 76.03919963137838) rotate(0 72.86154174804688 86.57271585813898)"><path d="M69.41 143.31 C65.48 152.17, 63.49 157.19, 55.07 172.41 M68.12 145.51 C64.74 153.91, 58.76 162.6, 56.13 171.98" stroke="#1e1e1e" stroke-width="1" fill="none"></path></g><g transform="translate(259.03076171875 76.03919963137838) rotate(0 72.86154174804688 86.57271585813898)"><path d="M84.03 157.71 C76.3 163.05, 70.59 164.4, 55.07 172.41 M82.74 159.91 C74.44 163.27, 63.5 167.08, 56.13 171.98" stroke="#1e1e1e" stroke-width="1" fill="none"></path></g></g><mask></mask><g stroke-linecap="round"><g transform="translate(151.7076416015625 316.7648987212582) rotate(0 -52.184600830078125 -89.9132110793791)"><path d="M-0.78 1.19 C-18.22 -3.53, -93.97 2.77, -104.2 -27.45 C-114.42 -57.68, -69.21 -154.69, -62.15 -180.16 M1.01 0.77 C-16.61 -4.37, -94.34 0.78, -105.05 -29.18 C-115.77 -59.15, -70.49 -153.98, -63.28 -179.01" stroke="#1e1e1e" stroke-width="1" fill="none"></path></g><g transform="translate(151.7076416015625 316.7648987212582) rotate(0 -52.184600830078125 -89.9132110793791)"><path d="M-61.63 -148.72 C-62.5 -160.21, -64.17 -169.78, -63.99 -179.82 M-64.45 -149.13 C-64.35 -155.83, -64.4 -164.88, -64.06 -179.25" stroke="#1e1e1e" stroke-width="1" fill="none"></path></g><g transform="translate(151.7076416015625 316.7648987212582) rotate(0 -52.184600830078125 -89.9132110793791)"><path d="M-80.84 -155.96 C-75.21 -164.9, -70.44 -172.04, -63.99 -179.82 M-83.66 -156.37 C-78.7 -161.41, -73.95 -168.65, -64.06 -179.25" stroke="#1e1e1e" stroke-width="1" fill="none"></path></g></g><mask></mask></svg>